<mxfile host="Electron" modified="2024-03-09T17:15:52.490Z" agent="Mozilla/5.0 (Windows NT 10.0; Win64; x64) AppleWebKit/537.36 (KHTML, like Gecko) draw.io/23.1.5 Chrome/120.0.6099.109 Electron/28.1.0 Safari/537.36" etag="lv6k2IdwnmgG3q09lJ9c" version="23.1.5" type="device">
  <diagram name="Page-1" id="AMS66FWU9nKd5_xFry6W">
    <mxGraphModel dx="1050" dy="629" grid="1" gridSize="10" guides="1" tooltips="1" connect="1" arrows="1" fold="1" page="1" pageScale="1" pageWidth="850" pageHeight="1100" math="0" shadow="0">
      <root>
        <mxCell id="0" />
        <mxCell id="1" parent="0" />
        <mxCell id="aFkcePXXmETLFqp9PaKK-7" value="" style="rounded=0;whiteSpace=wrap;html=1;" vertex="1" parent="1">
          <mxGeometry x="160" y="20" width="710" height="20" as="geometry" />
        </mxCell>
        <mxCell id="aFkcePXXmETLFqp9PaKK-1" value="" style="rounded=0;whiteSpace=wrap;html=1;" vertex="1" parent="1">
          <mxGeometry x="160" y="40" width="710" height="410" as="geometry" />
        </mxCell>
        <mxCell id="aFkcePXXmETLFqp9PaKK-6" value="Bookstore management app" style="text;html=1;align=center;verticalAlign=middle;whiteSpace=wrap;rounded=0;fontSize=9;" vertex="1" parent="1">
          <mxGeometry x="160" y="20" width="120" height="20" as="geometry" />
        </mxCell>
        <mxCell id="aFkcePXXmETLFqp9PaKK-8" value="X" style="rounded=0;whiteSpace=wrap;html=1;" vertex="1" parent="1">
          <mxGeometry x="850" y="20" width="20" height="20" as="geometry" />
        </mxCell>
        <mxCell id="aFkcePXXmETLFqp9PaKK-12" value="-" style="rounded=0;whiteSpace=wrap;html=1;" vertex="1" parent="1">
          <mxGeometry x="810" y="20" width="20" height="20" as="geometry" />
        </mxCell>
        <mxCell id="aFkcePXXmETLFqp9PaKK-13" value="Logged in as" style="text;html=1;align=center;verticalAlign=middle;whiteSpace=wrap;rounded=0;" vertex="1" parent="1">
          <mxGeometry x="160" y="40" width="90" height="30" as="geometry" />
        </mxCell>
        <mxCell id="aFkcePXXmETLFqp9PaKK-15" value="&lt;font style=&quot;background-color: rgb(102, 102, 102);&quot; color=&quot;#666666&quot;&gt;Textaaaaa&lt;/font&gt;" style="text;html=1;align=center;verticalAlign=middle;whiteSpace=wrap;rounded=0;" vertex="1" parent="1">
          <mxGeometry x="250" y="40" width="70" height="30" as="geometry" />
        </mxCell>
        <mxCell id="aFkcePXXmETLFqp9PaKK-16" value="" style="rounded=0;whiteSpace=wrap;html=1;" vertex="1" parent="1">
          <mxGeometry x="180" y="90" width="520" height="310" as="geometry" />
        </mxCell>
        <mxCell id="aFkcePXXmETLFqp9PaKK-17" value="Log out" style="rounded=0;whiteSpace=wrap;html=1;" vertex="1" parent="1">
          <mxGeometry x="330" y="45" width="70" height="20" as="geometry" />
        </mxCell>
        <mxCell id="aFkcePXXmETLFqp9PaKK-18" value="" style="rounded=0;whiteSpace=wrap;html=1;" vertex="1" parent="1">
          <mxGeometry x="220" y="90" width="80" height="310" as="geometry" />
        </mxCell>
        <mxCell id="aFkcePXXmETLFqp9PaKK-19" value="" style="rounded=0;whiteSpace=wrap;html=1;" vertex="1" parent="1">
          <mxGeometry x="300" y="90" width="80" height="310" as="geometry" />
        </mxCell>
        <mxCell id="aFkcePXXmETLFqp9PaKK-20" value="" style="rounded=0;whiteSpace=wrap;html=1;" vertex="1" parent="1">
          <mxGeometry x="380" y="90" width="80" height="310" as="geometry" />
        </mxCell>
        <mxCell id="aFkcePXXmETLFqp9PaKK-21" value="" style="rounded=0;whiteSpace=wrap;html=1;" vertex="1" parent="1">
          <mxGeometry x="460" y="90" width="80" height="310" as="geometry" />
        </mxCell>
        <mxCell id="aFkcePXXmETLFqp9PaKK-22" value="" style="rounded=0;whiteSpace=wrap;html=1;" vertex="1" parent="1">
          <mxGeometry x="540" y="90" width="80" height="310" as="geometry" />
        </mxCell>
        <mxCell id="aFkcePXXmETLFqp9PaKK-23" value="" style="rounded=0;whiteSpace=wrap;html=1;" vertex="1" parent="1">
          <mxGeometry x="620" y="90" width="80" height="310" as="geometry" />
        </mxCell>
        <mxCell id="aFkcePXXmETLFqp9PaKK-24" value="Title" style="rounded=0;whiteSpace=wrap;html=1;" vertex="1" parent="1">
          <mxGeometry x="220" y="90" width="80" height="20" as="geometry" />
        </mxCell>
        <mxCell id="aFkcePXXmETLFqp9PaKK-25" value="Category" style="rounded=0;whiteSpace=wrap;html=1;" vertex="1" parent="1">
          <mxGeometry x="300" y="90" width="80" height="20" as="geometry" />
        </mxCell>
        <mxCell id="aFkcePXXmETLFqp9PaKK-26" value="Rating" style="rounded=0;whiteSpace=wrap;html=1;" vertex="1" parent="1">
          <mxGeometry x="380" y="90" width="80" height="20" as="geometry" />
        </mxCell>
        <mxCell id="aFkcePXXmETLFqp9PaKK-27" value="Price" style="rounded=0;whiteSpace=wrap;html=1;" vertex="1" parent="1">
          <mxGeometry x="460" y="90" width="80" height="20" as="geometry" />
        </mxCell>
        <mxCell id="aFkcePXXmETLFqp9PaKK-28" value="In Stock" style="rounded=0;whiteSpace=wrap;html=1;" vertex="1" parent="1">
          <mxGeometry x="540" y="90" width="80" height="20" as="geometry" />
        </mxCell>
        <mxCell id="aFkcePXXmETLFqp9PaKK-29" value="Quantity" style="rounded=0;whiteSpace=wrap;html=1;" vertex="1" parent="1">
          <mxGeometry x="620" y="90" width="80" height="20" as="geometry" />
        </mxCell>
        <mxCell id="aFkcePXXmETLFqp9PaKK-30" value="" style="rounded=0;whiteSpace=wrap;html=1;" vertex="1" parent="1">
          <mxGeometry x="180" y="90" width="40" height="310" as="geometry" />
        </mxCell>
        <mxCell id="aFkcePXXmETLFqp9PaKK-31" value="Id" style="rounded=0;whiteSpace=wrap;html=1;" vertex="1" parent="1">
          <mxGeometry x="180" y="90" width="40" height="20" as="geometry" />
        </mxCell>
        <mxCell id="aFkcePXXmETLFqp9PaKK-33" value="" style="verticalLabelPosition=bottom;shadow=0;dashed=0;align=center;html=1;verticalAlign=top;strokeWidth=1;shape=mxgraph.mockup.navigation.scrollBar;strokeColor=#000000;barPos=100;fillColor2=#99ddff;strokeColor2=none;direction=north;" vertex="1" parent="1">
          <mxGeometry x="700" y="90" width="20" height="310" as="geometry" />
        </mxCell>
        <mxCell id="aFkcePXXmETLFqp9PaKK-35" value="Sync" style="rounded=1;fillColor=#0057D8;strokeColor=none;html=1;whiteSpace=wrap;fontColor=#ffffff;align=center;verticalAlign=middle;fontStyle=0;fontSize=12;sketch=0;" vertex="1" parent="1">
          <mxGeometry x="730.5" y="400" width="120" height="33" as="geometry" />
        </mxCell>
        <mxCell id="aFkcePXXmETLFqp9PaKK-36" value="Edit" style="rounded=1;html=1;shadow=0;dashed=0;whiteSpace=wrap;fontSize=10;fillColor=#666666;align=center;strokeColor=#4D4D4D;fontColor=#ffffff;" vertex="1" parent="1">
          <mxGeometry x="730" y="160" width="120" height="33" as="geometry" />
        </mxCell>
        <mxCell id="aFkcePXXmETLFqp9PaKK-37" value="Add" style="rounded=1;html=1;shadow=0;dashed=0;whiteSpace=wrap;fontSize=10;fillColor=#666666;align=center;strokeColor=#4D4D4D;fontColor=#ffffff;" vertex="1" parent="1">
          <mxGeometry x="730" y="110" width="120" height="33" as="geometry" />
        </mxCell>
        <mxCell id="aFkcePXXmETLFqp9PaKK-38" value="Remove" style="rounded=1;html=1;shadow=0;dashed=0;whiteSpace=wrap;fontSize=10;fillColor=#666666;align=center;strokeColor=#4D4D4D;fontColor=#ffffff;" vertex="1" parent="1">
          <mxGeometry x="730" y="210" width="120" height="33" as="geometry" />
        </mxCell>
        <mxCell id="aFkcePXXmETLFqp9PaKK-39" value="Out of stock/ In stock" style="rounded=1;html=1;shadow=0;dashed=0;whiteSpace=wrap;fontSize=10;fillColor=#666666;align=center;strokeColor=#4D4D4D;fontColor=#ffffff;" vertex="1" parent="1">
          <mxGeometry x="730" y="260" width="120" height="33" as="geometry" />
        </mxCell>
        <mxCell id="aFkcePXXmETLFqp9PaKK-40" value="Export" style="rounded=1;html=1;shadow=0;dashed=0;whiteSpace=wrap;fontSize=10;fillColor=#666666;align=center;strokeColor=#4D4D4D;fontColor=#ffffff;" vertex="1" parent="1">
          <mxGeometry x="730" y="340" width="120" height="33" as="geometry" />
        </mxCell>
        <mxCell id="aFkcePXXmETLFqp9PaKK-41" value="Mode: Manage" style="rounded=1;html=1;shadow=0;dashed=0;whiteSpace=wrap;fontSize=10;fillColor=#666666;align=center;strokeColor=#4D4D4D;fontColor=#ffffff;" vertex="1" parent="1">
          <mxGeometry x="680" y="45" width="170.5" height="26.88" as="geometry" />
        </mxCell>
        <mxCell id="aFkcePXXmETLFqp9PaKK-42" value="" style="rounded=0;whiteSpace=wrap;html=1;fillColor=none;" vertex="1" parent="1">
          <mxGeometry x="180" y="110" width="520" height="20" as="geometry" />
        </mxCell>
        <mxCell id="aFkcePXXmETLFqp9PaKK-43" value="" style="rounded=0;whiteSpace=wrap;html=1;fillColor=none;" vertex="1" parent="1">
          <mxGeometry x="180" y="130" width="520" height="20" as="geometry" />
        </mxCell>
        <mxCell id="aFkcePXXmETLFqp9PaKK-44" value="" style="rounded=0;whiteSpace=wrap;html=1;fillColor=none;" vertex="1" parent="1">
          <mxGeometry x="180" y="150" width="520" height="20" as="geometry" />
        </mxCell>
        <mxCell id="aFkcePXXmETLFqp9PaKK-45" value="" style="rounded=0;whiteSpace=wrap;html=1;fillColor=none;" vertex="1" parent="1">
          <mxGeometry x="180" y="170" width="520" height="20" as="geometry" />
        </mxCell>
        <mxCell id="aFkcePXXmETLFqp9PaKK-46" value="" style="rounded=0;whiteSpace=wrap;html=1;fillColor=none;" vertex="1" parent="1">
          <mxGeometry x="180" y="190" width="520" height="20" as="geometry" />
        </mxCell>
        <mxCell id="aFkcePXXmETLFqp9PaKK-47" value="" style="rounded=0;whiteSpace=wrap;html=1;fillColor=none;" vertex="1" parent="1">
          <mxGeometry x="180" y="210" width="520" height="20" as="geometry" />
        </mxCell>
        <mxCell id="aFkcePXXmETLFqp9PaKK-48" value="" style="rounded=0;whiteSpace=wrap;html=1;fillColor=none;" vertex="1" parent="1">
          <mxGeometry x="180" y="230" width="520" height="20" as="geometry" />
        </mxCell>
        <mxCell id="aFkcePXXmETLFqp9PaKK-49" value="" style="rounded=0;whiteSpace=wrap;html=1;fillColor=none;" vertex="1" parent="1">
          <mxGeometry x="180" y="250" width="520" height="20" as="geometry" />
        </mxCell>
        <mxCell id="aFkcePXXmETLFqp9PaKK-50" value="" style="rounded=0;whiteSpace=wrap;html=1;fillColor=none;" vertex="1" parent="1">
          <mxGeometry x="180" y="270" width="520" height="20" as="geometry" />
        </mxCell>
        <mxCell id="aFkcePXXmETLFqp9PaKK-51" value="" style="rounded=0;whiteSpace=wrap;html=1;fillColor=none;" vertex="1" parent="1">
          <mxGeometry x="180" y="290" width="520" height="20" as="geometry" />
        </mxCell>
        <mxCell id="aFkcePXXmETLFqp9PaKK-52" value="" style="rounded=0;whiteSpace=wrap;html=1;fillColor=none;" vertex="1" parent="1">
          <mxGeometry x="180" y="310" width="520" height="20" as="geometry" />
        </mxCell>
        <mxCell id="aFkcePXXmETLFqp9PaKK-53" value="" style="rounded=0;whiteSpace=wrap;html=1;fillColor=none;" vertex="1" parent="1">
          <mxGeometry x="180" y="330" width="520" height="20" as="geometry" />
        </mxCell>
        <mxCell id="aFkcePXXmETLFqp9PaKK-54" value="" style="rounded=0;whiteSpace=wrap;html=1;fillColor=none;" vertex="1" parent="1">
          <mxGeometry x="180" y="350" width="520" height="20" as="geometry" />
        </mxCell>
        <mxCell id="aFkcePXXmETLFqp9PaKK-55" value="" style="rounded=0;whiteSpace=wrap;html=1;fillColor=none;" vertex="1" parent="1">
          <mxGeometry x="180" y="370" width="520" height="20" as="geometry" />
        </mxCell>
        <mxCell id="aFkcePXXmETLFqp9PaKK-61" value="Search" style="rounded=0;whiteSpace=wrap;html=1;align=left;fontColor=#999999;" vertex="1" parent="1">
          <mxGeometry x="420" y="45" width="230" height="25" as="geometry" />
        </mxCell>
      </root>
    </mxGraphModel>
  </diagram>
</mxfile>
